<svg xmlns="http://www.w3.org/2000/svg" style="display: none;">
  <!-- Webhook/Link Icon -->
  <symbol id="icon-webhook" viewBox="0 0 24 24">
    <circle cx="6" cy="12" r="2" fill="currentColor"/>
    <circle cx="18" cy="12" r="2" fill="currentColor"/>
    <path d="M8 12h8M12 8v8" stroke="currentColor" stroke-width="2" fill="none" stroke-linecap="round"/>
  </symbol>

  <!-- Checkmark Icon -->
  <symbol id="icon-check" viewBox="0 0 24 24">
    <path d="M5 13l4 4L19 7" stroke="currentColor" stroke-width="2" fill="none" stroke-linecap="round" stroke-linejoin="round"/>
  </symbol>

  <!-- Duplicate/Sync Icon -->
  <symbol id="icon-duplicate" viewBox="0 0 24 24">
    <path d="M4 4v10h10M20 14v6H10" stroke="currentColor" stroke-width="2" fill="none" stroke-linecap="round"/>
    <path d="M20 14l-3-3" stroke="currentColor" stroke-width="2" fill="none"/>
  </symbol>

  <!-- Chart/Graph Icon -->
  <symbol id="icon-chart" viewBox="0 0 24 24">
    <rect x="3" y="14" width="2" height="7" fill="currentColor"/>
    <rect x="9" y="10" width="2" height="11" fill="currentColor"/>
    <rect x="15" y="6" width="2" height="15" fill="currentColor"/>
  </symbol>

  <!-- Target/Goal Icon -->
  <symbol id="icon-target" viewBox="0 0 24 24">
    <circle cx="12" cy="12" r="10" stroke="currentColor" stroke-width="2" fill="none"/>
    <circle cx="12" cy="12" r="6" stroke="currentColor" stroke-width="2" fill="none"/>
    <circle cx="12" cy="12" r="2" fill="currentColor"/>
  </symbol>

  <!-- Document/Profile Icon -->
  <symbol id="icon-document" viewBox="0 0 24 24">
    <path d="M4 4h16v16H4z" stroke="currentColor" stroke-width="2" fill="none"/>
    <path d="M8 8h8M8 12h8M8 16h4" stroke="currentColor" stroke-width="1.5" fill="none" stroke-linecap="round"/>
  </symbol>

  <!-- Sheet/Table Icon -->
  <symbol id="icon-sheet" viewBox="0 0 24 24">
    <rect x="2" y="2" width="20" height="20" stroke="currentColor" stroke-width="2" fill="none"/>
    <line x1="2" y1="8" x2="22" y2="8" stroke="currentColor" stroke-width="1"/>
    <line x1="2" y1="14" x2="22" y2="14" stroke="currentColor" stroke-width="1"/>
    <line x1="8" y1="2" x2="8" y2="22" stroke="currentColor" stroke-width="1"/>
    <line x1="14" y1="2" x2="14" y2="22" stroke="currentColor" stroke-width="1"/>
  </symbol>

  <!-- Rocket/Deploy Icon -->
  <symbol id="icon-rocket" viewBox="0 0 24 24">
    <path d="M12 2l4 8h6l-5 4 2 6-7-5-7 5 2-6-5-4h6z" stroke="currentColor" stroke-width="1.5" fill="none"/>
    <circle cx="12" cy="8" r="1.5" fill="currentColor"/>
  </symbol>

  <!-- Cost/Money Icon -->
  <symbol id="icon-cost" viewBox="0 0 24 24">
    <circle cx="12" cy="12" r="9" stroke="currentColor" stroke-width="2" fill="none"/>
    <path d="M12 6v12M9 9h6c1 0 1.5.5 1.5 1.5s-.5 1.5-1.5 1.5h-3c-1 0-1.5.5-1.5 1.5s.5 1.5 1.5 1.5h6" stroke="currentColor" stroke-width="1.5" fill="none" stroke-linecap="round"/>
  </symbol>

  <!-- Clock/Time Icon -->
  <symbol id="icon-clock" viewBox="0 0 24 24">
    <circle cx="12" cy="12" r="10" stroke="currentColor" stroke-width="2" fill="none"/>
    <line x1="12" y1="6" x2="12" y2="12" stroke="currentColor" stroke-width="2" stroke-linecap="round"/>
    <line x1="12" y1="12" x2="16" y2="15" stroke="currentColor" stroke-width="2" stroke-linecap="round"/>
  </symbol>

  <!-- Security/Lock Icon -->
  <symbol id="icon-lock" viewBox="0 0 24 24">
    <rect x="4" y="10" width="16" height="10" stroke="currentColor" stroke-width="2" fill="none" rx="2"/>
    <path d="M6 10V8a6 6 0 0 1 12 0v2" stroke="currentColor" stroke-width="2" fill="none"/>
    <circle cx="12" cy="15" r="1.5" fill="currentColor"/>
  </symbol>

  <!-- Brain/AI Icon -->
  <symbol id="icon-brain" viewBox="0 0 24 24">
    <circle cx="8" cy="8" r="2" stroke="currentColor" stroke-width="1.5" fill="none"/>
    <circle cx="16" cy="8" r="2" stroke="currentColor" stroke-width="1.5" fill="none"/>
    <circle cx="12" cy="16" r="2" stroke="currentColor" stroke-width="1.5" fill="none"/>
    <path d="M10 10l-1 4M14 10l1 4M8 10v4M16 10v4" stroke="currentColor" stroke-width="1.5" fill="none" stroke-linecap="round"/>
  </symbol>

  <!-- Settings/Config Icon -->
  <symbol id="icon-settings" viewBox="0 0 24 24">
    <circle cx="12" cy="12" r="3" stroke="currentColor" stroke-width="2" fill="none"/>
    <circle cx="12" cy="3" r="1.5" stroke="currentColor" stroke-width="1.5" fill="none"/>
    <circle cx="19" cy="8" r="1.5" stroke="currentColor" stroke-width="1.5" fill="none"/>
    <circle cx="19" cy="16" r="1.5" stroke="currentColor" stroke-width="1.5" fill="none"/>
    <circle cx="12" cy="21" r="1.5" stroke="currentColor" stroke-width="1.5" fill="none"/>
    <circle cx="5" cy="16" r="1.5" stroke="currentColor" stroke-width="1.5" fill="none"/>
    <circle cx="5" cy="8" r="1.5" stroke="currentColor" stroke-width="1.5" fill="none"/>
  </symbol>

  <!-- Check Circle Icon -->
  <symbol id="icon-check-circle" viewBox="0 0 24 24">
    <circle cx="12" cy="12" r="10" stroke="currentColor" stroke-width="2" fill="none"/>
    <path d="M8 12l2 2 4-4" stroke="currentColor" stroke-width="2" fill="none" stroke-linecap="round" stroke-linejoin="round"/>
  </symbol>

  <!-- X/Close Icon -->
  <symbol id="icon-close" viewBox="0 0 24 24">
    <path d="M6 6l12 12M18 6L6 18" stroke="currentColor" stroke-width="2" fill="none" stroke-linecap="round"/>
  </symbol>

  <!-- Arrow Right Icon -->
  <symbol id="icon-arrow-right" viewBox="0 0 24 24">
    <path d="M5 12h14M12 5l7 7-7 7" stroke="currentColor" stroke-width="2" fill="none" stroke-linecap="round" stroke-linejoin="round"/>
  </symbol>

  <!-- Plus Icon -->
  <symbol id="icon-plus" viewBox="0 0 24 24">
    <path d="M12 5v14M5 12h14" stroke="currentColor" stroke-width="2" fill="none" stroke-linecap="round"/>
  </symbol>

  <!-- Database Icon -->
  <symbol id="icon-database" viewBox="0 0 24 24">
    <ellipse cx="12" cy="5" rx="8" ry="3" stroke="currentColor" stroke-width="2" fill="none"/>
    <path d="M4 5v14c0 1.66 3.58 3 8 3s8-1.34 8-3V5" stroke="currentColor" stroke-width="2" fill="none"/>
    <line x1="4" y1="12" x2="20" y2="12" stroke="currentColor" stroke-width="1"/>
  </symbol>

  <!-- Cloud Icon -->
  <symbol id="icon-cloud" viewBox="0 0 24 24">
    <path d="M19 14c1.1 0 2-.9 2-2 0-1-.9-2-2-2h-.5C17 9 15.6 8 14 8c-1 0-2 .5-2.6 1.3-.3-.2-.7-.3-1.1-.3-1.7 0-3 1.3-3 3 0 .3 0 .6.1.8C6.7 12.5 6 13.6 6 15c0 2.2 1.8 4 4 4h9z" stroke="currentColor" stroke-width="1" fill="none"/>
  </symbol>

  <!-- Info Icon -->
  <symbol id="icon-info" viewBox="0 0 24 24">
    <circle cx="12" cy="12" r="10" stroke="currentColor" stroke-width="2" fill="none"/>
    <line x1="12" y1="8" x2="12" y2="12" stroke="currentColor" stroke-width="2" stroke-linecap="round"/>
    <circle cx="12" cy="16" r="0.5" fill="currentColor"/>
  </symbol>

  <!-- Warning Icon -->
  <symbol id="icon-warning" viewBox="0 0 24 24">
    <path d="M1 21h22L12 2 1 21z" stroke="currentColor" stroke-width="2" fill="none" stroke-linejoin="round"/>
    <line x1="12" y1="9" x2="12" y2="13" stroke="currentColor" stroke-width="2" stroke-linecap="round"/>
    <circle cx="12" cy="17" r="0.5" fill="currentColor"/>
  </symbol>

  <!-- Filter Icon -->
  <symbol id="icon-filter" viewBox="0 0 24 24">
    <path d="M4 6h16v2L12 15v7l-4-2v-5L4 8V6z" stroke="currentColor" stroke-width="2" fill="none" stroke-linejoin="round"/>
  </symbol>

  <!-- Search Icon -->
  <symbol id="icon-search" viewBox="0 0 24 24">
    <circle cx="11" cy="11" r="8" stroke="currentColor" stroke-width="2" fill="none"/>
    <path d="M21 21l-4.35-4.35" stroke="currentColor" stroke-width="2" fill="none" stroke-linecap="round"/>
  </symbol>

  <!-- Layers Icon -->
  <symbol id="icon-layers" viewBox="0 0 24 24">
    <path d="M12 2L2 7l10 5 10-5-10-5z" stroke="currentColor" stroke-width="1.5" fill="none"/>
    <path d="M2 12l10 5 10-5" stroke="currentColor" stroke-width="1.5" fill="none"/>
    <path d="M2 17l10 5 10-5" stroke="currentColor" stroke-width="1.5" fill="none"/>
  </symbol>
</svg>
